<?xml version="1.0" encoding="UTF-8" standalone="no"?>
<svg
   xmlns:dc="http://purl.org/dc/elements/1.1/"
   xmlns:cc="http://creativecommons.org/ns#"
   xmlns:rdf="http://www.w3.org/1999/02/22-rdf-syntax-ns#"
   xmlns:svg="http://www.w3.org/2000/svg"
   xmlns="http://www.w3.org/2000/svg"
   id="svg3355"
   viewBox="0, 0, 35, 35"
   height="35"
   width="35"
   y="0"
   x="0"
   version="1.1">
  <metadata
     id="metadata3367">
    <rdf:RDF>
      <cc:Work
         rdf:about="">
        <dc:format>image/svg+xml</dc:format>
        <dc:type
           rdf:resource="http://purl.org/dc/dcmitype/StillImage" />
        <dc:title></dc:title>
      </cc:Work>
    </rdf:RDF>
  </metadata>
  <defs
     id="defs3365" />
  <g
     id="Symbols">
    <path
       fill="#EAF5F0"
       id="Oval-109-Copy"
       d="M17.5,35 C27.165,35 35,27.165 35,17.5 C35,7.835 27.165,0 17.5,0 C7.835,0 0,7.835 0,17.5 C0,27.165 7.835,35 17.5,35 z" />
    <g
       transform="translate(0,4.025)"
       id="sticker">
      <path
         style="fill-opacity:0;stroke:#76cfa6;stroke-width:1"
         id="path-1"
         d="M 10,10.01 C 10,7.795 11.782,6 14.004,6 l 4.398,0 6.598,6.492 0,4.489 c 0,2.206 -1.794,3.994 -4,3.994 l -7,0 c -2.209,0 -4,-1.8 -4,-4.01 z" />
      <path
         style="fill-opacity:0;stroke:#76cfa6;stroke-width:1"
         id="path-3"
         d="m 25,13 -4.843,0 C 18.966,13 18,12.034 18,10.843 L 18,6" />
    </g>
  </g>
</svg>
